<svg xmlns="http://www.w3.org/2000/svg" width="600" height="600"><path d="M0 0v600h600V0H0z" fill="#39b54b"/><path d="M469 78l-47.053 74-85.371 135-44.919 71L266 400l-51-49-92-92h-1l-51 57v1l143 143c21.954 21.954 42.568 50.085 68 68 53.105-80.255 102.546-163.31 153.424-245 32.584-52.317 69.622-103.611 98.576-158l-65-47z" fill="#010101"/><path d="M471 79l1 1-1-1z" fill="#3dc33d"/><path d="M475 82l1 1-1-1z" fill="#01ff01"/><path d="M463 86l1 1-1-1m23 4l1 1-1-1z" fill="#3dc33d"/><path d="M490 93l1 1-1-1z" fill="#01ff01"/><path d="M458 94l1 1-1-1z" fill="#119170"/><path d="M501 101l1 1-1-1z" fill="#3dc33d"/><path d="M505 104l1 1-1-1z" fill="#01ff01"/><path d="M451 105l1 1-1-1m65 7l1 1-1-1z" fill="#3dc33d"/><path d="M446 113l1 1-1-1z" fill="#119170"/><path d="M520 115l1 1-1-1z" fill="#01ff01"/><path d="M444 116l1 1-1-1m87 7l1 1-1-1m-92 1l1 1-1-1m-2 3l1 1-1-1m95 0l1 1-1-1z" fill="#3dc33d"/><path d="M434 132l1 1-1-1z" fill="#01ff01"/><path d="M527 135l1 1-1-1m-5 8l1 1-1-1z" fill="#3dc33d"/><path d="M422 151l1 1-1-1z" fill="#01ff01"/><path d="M408 173l1 1-1-1z" fill="#3dc33d"/><path d="M500 178l1 1-1-1z" fill="#01ff01"/><path d="M403 181l1 1-1-1z" fill="#119170"/><path d="M497 183l1 1-1-1z" fill="#3dc33d"/><path d="M495 186l1 1-1-1z" fill="#01ff01"/><path d="M396 192l1 1-1-1z" fill="#3dc33d"/><path d="M490 194l1 1-1-1z" fill="#01ff01"/><path d="M391 200l1 1-1-1z" fill="#119170"/><path d="M485 202l1 1-1-1z" fill="#01ff01"/><path d="M389 203l1 1-1-1z" fill="#3dc33d"/><path d="M480 210l1 1-1-1z" fill="#119170"/><path d="M384 211l1 1-1-1m-2 3l1 1-1-1z" fill="#3dc33d"/><path d="M475 218l1 1-1-1z" fill="#119170"/><path d="M379 219l1 1-1-1z" fill="#01ff01"/><path d="M470 226l1 1-1-1z" fill="#119170"/><path d="M467 231l1 1-1-1z" fill="#3dc33d"/><path d="M367 238l1 1-1-1z" fill="#01ff01"/><path d="M462 239l1 1-1-1m-12 19l1 1-1-1m-5 8l1 1-1-1z" fill="#3dc33d"/><path d="M348 268l1 1-1-1z" fill="#119170"/><path d="M108 274l1 1-1-1z" fill="#01ff01"/><path d="M440 274l1 1-1-1m-99 5l1 1-1-1m94 3l1 1-1-1m-336 2l1 1-1-1m-1 1l1 1-1-1z" fill="#3dc33d"/><path d="M336 287l1 1-1-1z" fill="#119170"/><path d="M334 290l1 1-1-1m96 0l1 1-1-1m-101 8l1 1-1-1z" fill="#3dc33d"/><path d="M83 302l1 1-1-1m241 4l1 1-1-1z" fill="#01ff01"/><path d="M74 312l1 1-1-1m-1 1l1 1-1-1m242 7l1 1-1-1m-127 4l1 1-1-1m1 1l1 1-1-1z" fill="#3dc33d"/><path d="M312 325l1 1-1-1m96 0l1 1-1-1z" fill="#01ff01"/><path d="M190 326l1 1-1-1m1 1l1 1-1-1m214 3l1 1-1-1z" fill="#3dc33d"/><path d="M403 333l1 1-1-1z" fill="#01ff01"/><path d="M200 336l1 1-1-1m1 1l1 1-1-1m1 1l1 1-1-1m1 1l1 1-1-1z" fill="#3dc33d"/><path d="M398 341l1 1-1-1m-98 3l1 1-1-1z" fill="#01ff01"/><path d="M211 347l1 1-1-1m1 1l1 1-1-1m1 1l1 1-1-1z" fill="#3dc33d"/><path d="M393 349l1 1-1-1z" fill="#01ff01"/><path d="M214 350l1 1-1-1m1 1l1 1-1-1m1 1l1 1-1-1m1 1l1 1-1-1m1 1l1 1-1-1m1 1l1 1-1-1z" fill="#3dc33d"/><path d="M293 355l1 1-1-1m95 2l1 1-1-1m-163 4l1 1-1-1m1 1l1 1-1-1m1 1l1 1-1-1m1 1l1 1-1-1m1 1l1 1-1-1m154 0l1 1-1-1m-153 1l1 1-1-1z" fill="#119170"/><path d="M286 366l1 1-1-1z" fill="#3dc33d"/><path d="M231 367l1 1-1-1m1 1l1 1-1-1m1 1l1 1-1-1m1 1l1 1-1-1m1 1l1 1-1-1m1 1l1 1-1-1m1 1l1 1-1-1z" fill="#01ff01"/><path d="M378 373l1 1-1-1m-97 1l1 1-1-1z" fill="#119170"/><path d="M279 377l1 1-1-1m96 1l1 1-1-1m-101 7l1 1-1-1m96 1l1 1-1-1z" fill="#3dc33d"/><path d="M269 393l1 1-1-1z" fill="#01ff01"/><path d="M267 396l1 1-1-1m-110 7l1 1-1-1m1 1l1 1-1-1m1 1l1 1-1-1m199 0l1 1-1-1m-198 1l1 1-1-1m1 1l1 1-1-1m192 6l1 1-1-1m-179 7l1 1-1-1m1 1l1 1-1-1m173 0l1 1-1-1m-172 1l1 1-1-1m1 1l1 1-1-1m1 1l1 1-1-1m165 5l1 1-1-1m-154 6l1 1-1-1m1 1l1 1-1-1m1 1l1 1-1-1m147 0l1 1-1-1m-146 1l1 1-1-1m1 1l1 1-1-1m1 1l1 1-1-1m1 1l1 1-1-1m1 1l1 1-1-1m1 1l1 1-1-1m1 1l1 1-1-1m1 1l1 1-1-1m1 1l1 1-1-1z" fill="#3dc33d"/><path d="M208 454l1 1-1-1m1 1l1 1-1-1m1 1l1 1-1-1m1 1l1 1-1-1m1 1l1 1-1-1m1 1l1 1-1-1m1 1l1 1-1-1m1 1l1 1-1-1z" fill="#119170"/><path d="M216 462l1 1-1-1m1 1l1 1-1-1m1 1l1 1-1-1m1 1l1 1-1-1m1 1l1 1-1-1m1 1l1 1-1-1m1 1l1 1-1-1m1 1l1 1-1-1m1 1l1 1-1-1m1 1l1 1-1-1m1 1l1 1-1-1m90 0l1 1-1-1z" fill="#01ff01"/><path d="M313 477l1 1-1-1z" fill="#3dc33d"/><path d="M311 480l1 1-1-1m-5 8l1 1-1-1m-5 8l1 1-1-1z" fill="#01ff01"/><path d="M296 504l1 1-1-1m-5 8l1 1-1-1m-5 8l1 1-1-1z" fill="#119170"/><path d="M283 525l1 1-1-1z" fill="#3dc33d"/></svg>