<?xml version="1.0" standalone="yes"?>
<svg xmlns="http://www.w3.org/2000/svg" width="600" height="600">
<path style="fill:#39b54b; stroke:none;" d="M0 0L0 600L600 600L600 0L0 0z"/>
<path style="fill:#010101; stroke:none;" d="M469 78L421.947 152L336.576 287L291.657 358L266 400L215 351L123 259L122 259L71 316L71 317L214 460C235.954 481.954 256.568 510.085 282 528C335.105 447.745 384.546 364.69 435.424 283C468.008 230.683 505.046 179.389 534 125L469 78z"/>
<path style="fill:#3dc33d; stroke:none;" d="M471 79L472 80L471 79z"/>
<path style="fill:#01ff01; stroke:none;" d="M475 82L476 83L475 82z"/>
<path style="fill:#3dc33d; stroke:none;" d="M463 86L464 87L463 86M486 90L487 91L486 90z"/>
<path style="fill:#01ff01; stroke:none;" d="M490 93L491 94L490 93z"/>
<path style="fill:#119170; stroke:none;" d="M458 94L459 95L458 94z"/>
<path style="fill:#3dc33d; stroke:none;" d="M501 101L502 102L501 101z"/>
<path style="fill:#01ff01; stroke:none;" d="M505 104L506 105L505 104z"/>
<path style="fill:#3dc33d; stroke:none;" d="M451 105L452 106L451 105M516 112L517 113L516 112z"/>
<path style="fill:#119170; stroke:none;" d="M446 113L447 114L446 113z"/>
<path style="fill:#01ff01; stroke:none;" d="M520 115L521 116L520 115z"/>
<path style="fill:#3dc33d; stroke:none;" d="M444 116L445 117L444 116M531 123L532 124L531 123M439 124L440 125L439 124M437 127L438 128L437 127M532 127L533 128L532 127z"/>
<path style="fill:#01ff01; stroke:none;" d="M434 132L435 133L434 132z"/>
<path style="fill:#3dc33d; stroke:none;" d="M527 135L528 136L527 135M522 143L523 144L522 143z"/>
<path style="fill:#01ff01; stroke:none;" d="M422 151L423 152L422 151z"/>
<path style="fill:#3dc33d; stroke:none;" d="M408 173L409 174L408 173z"/>
<path style="fill:#01ff01; stroke:none;" d="M500 178L501 179L500 178z"/>
<path style="fill:#119170; stroke:none;" d="M403 181L404 182L403 181z"/>
<path style="fill:#3dc33d; stroke:none;" d="M497 183L498 184L497 183z"/>
<path style="fill:#01ff01; stroke:none;" d="M495 186L496 187L495 186z"/>
<path style="fill:#3dc33d; stroke:none;" d="M396 192L397 193L396 192z"/>
<path style="fill:#01ff01; stroke:none;" d="M490 194L491 195L490 194z"/>
<path style="fill:#119170; stroke:none;" d="M391 200L392 201L391 200z"/>
<path style="fill:#01ff01; stroke:none;" d="M485 202L486 203L485 202z"/>
<path style="fill:#3dc33d; stroke:none;" d="M389 203L390 204L389 203z"/>
<path style="fill:#119170; stroke:none;" d="M480 210L481 211L480 210z"/>
<path style="fill:#3dc33d; stroke:none;" d="M384 211L385 212L384 211M382 214L383 215L382 214z"/>
<path style="fill:#119170; stroke:none;" d="M475 218L476 219L475 218z"/>
<path style="fill:#01ff01; stroke:none;" d="M379 219L380 220L379 219z"/>
<path style="fill:#119170; stroke:none;" d="M470 226L471 227L470 226z"/>
<path style="fill:#3dc33d; stroke:none;" d="M467 231L468 232L467 231z"/>
<path style="fill:#01ff01; stroke:none;" d="M367 238L368 239L367 238z"/>
<path style="fill:#3dc33d; stroke:none;" d="M462 239L463 240L462 239M450 258L451 259L450 258M445 266L446 267L445 266z"/>
<path style="fill:#119170; stroke:none;" d="M348 268L349 269L348 268z"/>
<path style="fill:#01ff01; stroke:none;" d="M108 274L109 275L108 274z"/>
<path style="fill:#3dc33d; stroke:none;" d="M440 274L441 275L440 274M341 279L342 280L341 279M435 282L436 283L435 282M99 284L100 285L99 284M98 285L99 286L98 285z"/>
<path style="fill:#119170; stroke:none;" d="M336 287L337 288L336 287z"/>
<path style="fill:#3dc33d; stroke:none;" d="M334 290L335 291L334 290M430 290L431 291L430 290M329 298L330 299L329 298z"/>
<path style="fill:#01ff01; stroke:none;" d="M83 302L84 303L83 302M324 306L325 307L324 306z"/>
<path style="fill:#3dc33d; stroke:none;" d="M74 312L75 313L74 312M73 313L74 314L73 313M315 320L316 321L315 320M188 324L189 325L188 324M189 325L190 326L189 325z"/>
<path style="fill:#01ff01; stroke:none;" d="M312 325L313 326L312 325M408 325L409 326L408 325z"/>
<path style="fill:#3dc33d; stroke:none;" d="M190 326L191 327L190 326M191 327L192 328L191 327M405 330L406 331L405 330z"/>
<path style="fill:#01ff01; stroke:none;" d="M403 333L404 334L403 333z"/>
<path style="fill:#3dc33d; stroke:none;" d="M200 336L201 337L200 336M201 337L202 338L201 337M202 338L203 339L202 338M203 339L204 340L203 339z"/>
<path style="fill:#01ff01; stroke:none;" d="M398 341L399 342L398 341M300 344L301 345L300 344z"/>
<path style="fill:#3dc33d; stroke:none;" d="M211 347L212 348L211 347M212 348L213 349L212 348M213 349L214 350L213 349z"/>
<path style="fill:#01ff01; stroke:none;" d="M393 349L394 350L393 349z"/>
<path style="fill:#3dc33d; stroke:none;" d="M214 350L215 351L214 350M215 351L216 352L215 351M216 352L217 353L216 352M217 353L218 354L217 353M218 354L219 355L218 354M219 355L220 356L219 355z"/>
<path style="fill:#119170; stroke:none;" d="M293 355L294 356L293 355M388 357L389 358L388 357M225 361L226 362L225 361M226 362L227 363L226 362M227 363L228 364L227 363M228 364L229 365L228 364M229 365L230 366L229 365M383 365L384 366L383 365M230 366L231 367L230 366z"/>
<path style="fill:#3dc33d; stroke:none;" d="M286 366L287 367L286 366z"/>
<path style="fill:#01ff01; stroke:none;" d="M231 367L232 368L231 367M232 368L233 369L232 368M233 369L234 370L233 369M234 370L235 371L234 370M235 371L236 372L235 371M236 372L237 373L236 372M237 373L238 374L237 373z"/>
<path style="fill:#119170; stroke:none;" d="M378 373L379 374L378 373M281 374L282 375L281 374z"/>
<path style="fill:#3dc33d; stroke:none;" d="M279 377L280 378L279 377M375 378L376 379L375 378M274 385L275 386L274 385M370 386L371 387L370 386z"/>
<path style="fill:#01ff01; stroke:none;" d="M269 393L270 394L269 393z"/>
<path style="fill:#3dc33d; stroke:none;" d="M267 396L268 397L267 396M157 403L158 404L157 403M158 404L159 405L158 404M159 405L160 406L159 405M358 405L359 406L358 405M160 406L161 407L160 406M161 407L162 408L161 407M353 413L354 414L353 413M174 420L175 421L174 420M175 421L176 422L175 421M348 421L349 422L348 421M176 422L177 423L176 422M177 423L178 424L177 423M178 424L179 425L178 424M343 429L344 430L343 429M189 435L190 436L189 435M190 436L191 437L190 436M191 437L192 438L191 437M338 437L339 438L338 437M192 438L193 439L192 438M193 439L194 440L193 439M194 440L195 441L194 440M195 441L196 442L195 441M196 442L197 443L196 442M197 443L198 444L197 443M198 444L199 445L198 444M199 445L200 446L199 445M200 446L201 447L200 446z"/>
<path style="fill:#119170; stroke:none;" d="M208 454L209 455L208 454M209 455L210 456L209 455M210 456L211 457L210 456M211 457L212 458L211 457M212 458L213 459L212 458M213 459L214 460L213 459M214 460L215 461L214 460M215 461L216 462L215 461z"/>
<path style="fill:#01ff01; stroke:none;" d="M216 462L217 463L216 462M217 463L218 464L217 463M218 464L219 465L218 464M219 465L220 466L219 465M220 466L221 467L220 466M221 467L222 468L221 467M222 468L223 469L222 468M223 469L224 470L223 469M224 470L225 471L224 470M225 471L226 472L225 471M226 472L227 473L226 472M316 472L317 473L316 472z"/>
<path style="fill:#3dc33d; stroke:none;" d="M313 477L314 478L313 477z"/>
<path style="fill:#01ff01; stroke:none;" d="M311 480L312 481L311 480M306 488L307 489L306 488M301 496L302 497L301 496z"/>
<path style="fill:#119170; stroke:none;" d="M296 504L297 505L296 504M291 512L292 513L291 512M286 520L287 521L286 520z"/>
<path style="fill:#3dc33d; stroke:none;" d="M283 525L284 526L283 525z"/>
</svg>
